<?xml version="1.0" encoding="UTF-8" standalone="no"?>
<!-- Created with Inkscape (http://www.inkscape.org/) -->

<svg
   width="550"
   height="550"
   viewBox="0 0 145.52083 145.52084"
   version="1.1"
   id="svg1"
   xmlns="http://www.w3.org/2000/svg"
   xmlns:svg="http://www.w3.org/2000/svg">
  <defs
     id="defs1" />
  <path
     id="flag"
     style="fill:#ff0000;fill-opacity:1;stroke-width:0.252259"
     d="M 58.251114,30.003848 V 68.74309 h 49.672936 a 3.7219135,3.8493011 0 0 0 0.014,0.001 3.7219135,3.8493011 0 0 0 0.014,-0.001 h 0.0135 v -10e-4 a 3.7219135,3.8493011 0 0 0 3.68298,-3.68039 h 0.006 v -0.092 a 3.7219135,3.8493011 0 0 0 0.005,-0.0749 3.7219135,3.8493011 0 0 0 -0.005,-0.19637 V 33.870795 a 3.7219135,3.8493011 0 0 0 9.8e-4,-0.01499 3.7219135,3.8493011 0 0 0 -9.8e-4,-0.04186 v -0.06821 h -0.002 a 3.7219135,3.8493011 0 0 0 -3.68763,-3.738273 v -0.0036 z" />
  <path
     id="pole"
     style="fill:#ffffff;fill-opacity:1;stroke-width:0.264583"
     d="m 54.42809,17.876423 a 3.8101368,3.8493011 0 0 0 -3.808553,3.826123 h -0.0026 V 130.9026 h 7.618139 V 21.769725 a 3.8101368,3.8493011 0 0 0 0.0031,-0.04393 3.8101368,3.8493011 0 0 0 -3.810104,-3.849377 z" />
</svg>
